<?xml version="1.0" standalone="no"?>
<!DOCTYPE svg PUBLIC "-//W3C//DTD SVG 20010904//EN"
 "http://www.w3.org/TR/2001/REC-SVG-20010904/DTD/svg10.dtd">
<svg version="1.0" xmlns="http://www.w3.org/2000/svg"
 width="289.000000pt" height="289.000000pt" viewBox="0 0 289.000000 289.000000"
 preserveAspectRatio="xMidYMid meet">
<metadata>
Created by potrace 1.11, written by Peter Selinger 2001-2013
</metadata>
<g transform="translate(0.000000,289.000000) scale(0.100000,-0.100000)"
fill="#000000" stroke="none">
<path d="M1346 2664 c-388 -70 -716 -316 -893 -669 -33 -65 -64 -147 -99 -262
-2 -10 -47 -13 -179 -13 l-175 0 0 -240 0 -240 169 0 169 0 11 -52 c104 -480
490 -858 978 -955 121 -24 349 -23 463 1 169 35 318 97 464 193 100 66 262
230 330 336 101 154 176 345 192 488 6 57 8 59 35 59 l29 0 0 190 0 190 -25 0
c-23 0 -25 -3 -26 -52 l-1 -53 -14 76 c-44 248 -170 486 -348 663 -184 182
-441 311 -690 345 -105 15 -294 12 -390 -5z m425 -19 c416 -72 770 -364 924
-763 34 -89 75 -263 75 -321 0 -31 -1 -31 -50 -31 l-50 0 0 38 c-1 110 -69
316 -147 441 -230 370 -653 475 -990 247 -67 -46 -164 -149 -218 -231 -58 -88
-76 -126 -110 -230 l-23 -70 -406 -3 c-223 -1 -406 0 -406 2 0 3 12 42 26 88
132 420 483 736 919 828 113 23 336 26 456 5z m291 -304 c182 -47 340 -168
448 -344 78 -127 120 -251 144 -429 5 -36 4 -38 -25 -38 l-29 0 0 80 0 80 -30
0 -30 0 0 -190 0 -190 30 0 30 0 0 90 0 90 30 0 c29 0 30 -1 30 -47 0 -78 -28
-238 -55 -319 -86 -256 -262 -448 -485 -529 -138 -50 -317 -45 -450 13 l-45
20 61 -5 c127 -11 248 40 361 153 109 110 182 268 228 497 5 25 9 27 51 27 74
0 143 50 147 106 2 23 -3 30 -20 32 -16 2 -26 -5 -39 -34 -19 -40 -72 -69
-108 -60 -20 5 -21 12 -22 118 -1 63 -4 130 -8 150 -7 36 -6 37 27 43 42 8 87
-13 107 -50 10 -19 20 -25 39 -23 35 4 30 33 -15 78 -33 33 -38 35 -104 35
l-69 0 -11 45 c-56 220 -199 418 -357 493 -63 30 -76 32 -173 32 -88 0 -113
-4 -155 -23 -45 -20 -47 -20 -25 -2 43 33 145 80 222 100 95 25 205 25 300 1z
m-209 -111 c106 -41 191 -114 266 -230 45 -69 96 -186 112 -257 l11 -48 -40
-40 c-79 -80 -81 -229 -3 -306 20 -20 42 -38 50 -41 13 -4 12 -15 -1 -84 -67
-330 -271 -567 -503 -582 -85 -5 -168 16 -229 58 -126 86 -263 294 -307 464
-5 22 -12 49 -15 59 -5 15 5 17 105 17 l111 0 0 240 0 240 -105 0 c-58 0 -105
1 -105 3 0 20 59 166 92 230 51 97 166 219 243 257 105 51 216 58 318 20z
m-781 -540 c33 -10 98 -68 98 -89 0 -5 -9 -11 -20 -14 -15 -4 -24 2 -35 24
-19 36 -43 49 -92 49 -85 0 -127 -54 -127 -161 1 -108 42 -159 130 -159 46 0
89 31 99 73 5 19 12 23 30 19 21 -4 22 -7 13 -33 -24 -70 -115 -111 -196 -90
-100 27 -154 176 -103 286 22 49 48 73 98 91 47 16 58 17 105 4z m-902 -145
c0 -142 1 -147 25 -170 19 -20 34 -25 75 -25 41 0 56 5 75 25 24 23 25 28 25
170 l0 145 25 0 25 0 0 -117 c-1 -143 -10 -196 -41 -229 -49 -52 -156 -54
-213 -4 l-31 28 -3 161 c-3 157 -3 161 17 161 20 0 21 -5 21 -145z m404 -21
c32 -91 62 -162 65 -157 4 4 33 79 65 166 47 127 62 157 77 157 11 0 19 -3 19
-7 0 -4 -32 -89 -72 -190 -67 -172 -73 -183 -97 -183 -25 0 -29 10 -90 178
-35 97 -66 183 -69 190 -2 7 5 12 19 12 22 0 29 -15 83 -166z m1690 45 c11
-107 8 -211 -6 -207 -29 10 -53 72 -53 138 1 62 23 130 44 130 4 0 11 -28 15
-61z m512 -161 c-12 -144 -27 -230 -58 -328 -167 -523 -657 -868 -1203 -847
-324 13 -588 128 -816 356 -108 108 -182 212 -245 345 -37 79 -94 256 -94 294
0 9 87 12 404 12 l403 0 18 -71 c71 -292 251 -495 525 -593 76 -27 97 -30 200
-30 82 0 132 5 175 18 261 78 471 312 555 617 17 65 39 222 40 287 0 20 5 22
51 22 l51 0 -6 -82z"/>
<path d="M1450 1670 c0 -18 7 -20 60 -20 l60 0 0 -170 0 -170 30 0 30 0 0 170
0 170 65 0 c58 0 65 2 65 20 0 19 -7 20 -155 20 -148 0 -155 -1 -155 -20z"/>
<path d="M1800 1500 l0 -190 145 0 c138 0 145 1 145 20 0 19 -7 20 -115 20
l-115 0 0 65 0 65 105 0 c98 0 105 1 105 20 0 19 -7 20 -105 20 l-105 0 0 65
0 65 110 0 c103 0 110 1 110 20 0 19 -7 20 -140 20 l-140 0 0 -190z"/>
</g>
</svg>
